<svg xmlns="http://www.w3.org/2000/svg" viewBox="0 0 558 558"><g id="075b4738-d007-4a9e-89a3-88b5b30d5499" data-name="Background"><rect width="558" height="558" style="fill:#fff"/></g><g id="994e9e72-c808-4601-9389-bfb3c11e39e2" data-name="Box"><path d="M322.45,149.93a16.25,16.25,0,1,1-29.52-10.55l-18.13,3.88a16.22,16.22,0,0,1-13,24.6,31.59,31.59,0,0,1-32.61,41,31.92,31.92,0,0,1-3.41-.46c0,.1,0,.19,0,.29A8.2,8.2,0,1,1,212,202.1a31.62,31.62,0,0,1-5.26-44.28L101.31,180.39h0l112.44,65.27a49.48,49.48,0,0,1,83.7,4L242,262.06l-.29.06V505.35l237.46-74,.25-222.44-70.55,15.79-43.18,9.66-17.67,4V190.2a12.72,12.72,0,1,1,0-21v-41.6l-33.42,7.15A16.24,16.24,0,0,1,322.45,149.93ZM181.11,182.47a12.72,12.72,0,1,1-11.7-13.67A12.72,12.72,0,0,1,181.11,182.47Zm81.94,124,3-.68v67.61l14.16-3.58v4.29l-17.12,4.36ZM285.12,434c0,11.1-3.7,18.1-10.83,20.11l-11.22,3.17V384.8L273.84,382c7.39-1.9,10.57,2.73,10.57,13.84v2.57c0,7.4-1.43,12.51-4.6,15.73,3.82,1.34,5.32,6.38,5.32,14ZM284,373.18l9.85-73.82,4.31-1,10,68.65-3,.75L303,352.63l-14,3.49-2.25,16.37Zm25.53,53.9c0,11.41-3.83,19-10.83,21s-10.83-3.51-10.83-15V395.69c0-11.5,3.83-19.05,10.83-20.85s10.83,3.74,10.83,15.16Zm24.57-6.68c0,11.31-3.63,18.8-10.63,20.77s-10.63-3.51-10.63-14.9V372l7.13-1.83V425c0,5.07,1.43,6.5,3.7,5.87s3.69-2.85,3.69-7.91V368.31l6.74-1.73ZM462.8,349.71v2.12l-6.75,1.78v-2.8c0-4.83-1.3-6.32-3.57-5.73s-3.57,2.77-3.57,7.61c0,13.93,13.94,12.8,13.94,32,0,10.78-3.63,18-10.63,19.94s-10.63-3.2-10.63-14.07v-4.17l6.74-1.85v4.84c0,4.84,1.43,6.18,3.7,5.55s3.7-2.77,3.7-7.59c0-13.9-13.94-12.74-13.94-32.14,0-10.87,3.57-18,10.5-19.77S462.8,338.93,462.8,349.71Zm-17.9-97.55,4.57,8.1-2.32.53-5.47-7.91Zm-.13,12.64,4.31-1,10,64.8-3,.75-2.25-14.29-14,3.49-2.25,15.52-2.7.69ZM432.2,382.19v-40.8l6.36-1.63v68l-7.33,2.07-8.88-47v49.55l-6.42,1.81V345.57l8.95-2.3ZM403,274.46l17.76-4.07v4.08L406,277.88v27.54l12.29-3v4.08l-12.29,3V338l14.8-3.74v4.08L403,342.89ZM412.37,363v35.71c0,11-3.83,18.35-10.83,20.33s-10.83-3.27-10.83-14.34v-36c0-11.08,3.83-18.39,10.83-20.18S412.37,352,412.37,363ZM378,280.17l21.3-4.88v4.11l-9.2,2.12v64.64l-3,.75V282.21L378,284.32Zm-6.56,1.5,3-.68v69.16l-3,.75Zm-1.19,75.61,7.13-1.83v59.63l11.74-3.27v9.89L370.29,427Zm-2.13,70.35L349.29,433V362.67l7.13-1.83v60.09l11.74-3.27ZM346.77,304.4c0-10.18,3-18.36,9.85-19.92s10,5.15,10,15.25v35.48c0,10.11-3,18.31-10,20.08s-9.85-5-9.85-15.16Zm-1.69,129.75-7.13,2V365.58l7.13-1.83ZM341.3,303.49v4c0,7.6-1.35,12.63-5.92,15.23,4.89.33,6.76,5.47,6.76,13.37v6.1c0,10.1-3,16.95-9.85,18.7l-9.65,2.46V292.86l9.46-2.17C338.86,289.15,341.3,293.79,341.3,303.49Zm-6.9-62.1-22.73,5.09a12.71,12.71,0,0,1,22.73-5.09Zm-7-22.56a20,20,0,1,1-32-17.4A12.72,12.72,0,1,1,317,199.76,20,20,0,0,1,327.36,218.83Z" transform="translate(24 30)" style="fill:#fff"/><path d="M101.31,180.39l105.46-22.57a31.5,31.5,0,0,1,38.17-9.18,16.24,16.24,0,0,1,29.86-5.38l18.13-3.88a16.19,16.19,0,0,1,21.66-4.64L348,127.59,314.79,80.44A12.71,12.71,0,0,1,301.09,61l-54.6-77.49L-10.46,21.69l111.77,158.7Zm170-123.18a7.65,7.65,0,1,1-8.22,7A7.65,7.65,0,0,1,271.34,57.22ZM261,104a22.63,22.63,0,1,1,20.81,24.31A22.63,22.63,0,0,1,261,104ZM200.65,58.11a25.52,25.52,0,1,1-25.52,25.52A25.52,25.52,0,0,1,200.65,58.11Zm-32.81,52.15a18.12,18.12,0,1,1-18.12,18.12A18.12,18.12,0,0,1,167.83,110.27Z" transform="translate(24 30)" style="fill:#b5b4b5"/><path d="M353.54,180.68A12.69,12.69,0,0,1,348,190.2v48.14l17.67-4A23.44,23.44,0,1,1,409,223.87c0,.29-.08.57-.11.85l70.55-15.79-.25,222.44-237.46,74V262.13l.29-.06-28.25-16.4L101.31,180.39h0V393.68L241.72,516.85,488.32,440V207L348,127.59v41.6A12.71,12.71,0,0,1,353.54,180.68Zm13.31-9.45a8.2,8.2,0,1,1-8.81,7.54A8.2,8.2,0,0,1,366.85,171.22Z" transform="translate(24 30)" style="fill:#b5b4b5"/><g id="0c0fa04c-a9df-4fc9-b92c-abde471d3bd3" data-name="Caracteres"><path d="M331.2,326.13l-5.6,1.35v30.88l6.69-1.69c5-1.25,6.89-6,6.89-13.85v-6.3C339.18,327.41,336.54,324.84,331.2,326.13Z" transform="translate(24 30)" style="fill:#fff"/><path d="M356.62,351.11c5-1.27,7-7.33,7-14.87V300.14c0-7.54-2-12.63-7-11.48s-6.89,7.17-6.89,14.75V339.7C349.73,347.27,351.66,352.37,356.62,351.11Z" transform="translate(24 30)" style="fill:#fff"/><polygon points="319.87 334.27 313.37 381.93 326.5 378.69 319.87 334.27" style="fill:#fff"/><path d="M273.39,421.88l-3.18.86V445l4.09-1.14c2.4-.67,3.7-2.78,3.7-8.14v-6.29C278,422.7,276.63,421,273.39,421.88Z" transform="translate(24 30)" style="fill:#fff"/><path d="M325.6,296.4v26.85l5-1.21c5.28-1.27,7.72-4.05,7.72-13v-4.51c0-7.31-1.48-10.77-6.31-9.66Z" transform="translate(24 30)" style="fill:#fff"/><path d="M298.67,385.07c-2.27.59-3.69,2.91-3.69,8v38.71c0,5.12,1.43,6.67,3.69,6s3.7-3,3.7-8.08v-38.6C302.36,386.05,300.93,384.48,298.67,385.07Z" transform="translate(24 30)" style="fill:#fff"/><path d="M401.54,409.15c2.27-.63,3.7-2.9,3.7-7.82V364.15c0-4.92-1.43-6.42-3.7-5.83s-3.7,2.84-3.7,7.77v37.28C397.85,408.3,399.27,409.78,401.54,409.15Z" transform="translate(24 30)" style="fill:#fff"/><polygon points="470.84 299.42 464.34 344.59 477.46 341.35 470.84 299.42" style="fill:#fff"/><path d="M277.28,402.9v-4c0-5.15-1.1-7.13-3.63-6.47l-3.44.89v19.11l2.79-.75C275.66,411,277.28,408.67,277.28,402.9Z" transform="translate(24 30)" style="fill:#fff"/></g><polygon points="125.31 210.39 125.31 210.39 125.31 210.39 125.31 210.39" style="fill:none"/></g><g id="1e9a908c-24fb-4823-941e-7ff61127427c" data-name="Bubbles"><circle cx="331.44" cy="54.57" r="15.21" style="fill:#045d68"/><circle cx="438.84" cy="158.39" r="18.81" style="fill:#d8c59d"/><circle cx="377.98" cy="120.8" r="18.81" style="fill:#868486"/><circle cx="224.65" cy="113.64" r="25.52" style="fill:#d8c59d"/><circle cx="191.83" cy="158.39" r="18.12" style="fill:#868486"/><circle cx="168.43" cy="181.49" r="12.72" transform="translate(-1.53 365.38) rotate(-85.57)" style="fill:#65b9af"/><path d="M212,202.1a8.15,8.15,0,0,1,13.78,6.28,31.56,31.56,0,0,0,37.39-28.63,31.49,31.49,0,0,0-1.37-11.89,16.21,16.21,0,0,1-16.89-19.23A31.61,31.61,0,0,0,212,202.1Z" transform="translate(24 30)" style="fill:#e94168"/><path d="M259.65,167.86a16.38,16.38,0,0,0,17.46-14.95,16.25,16.25,0,0,0-32.17-4.28,16.42,16.42,0,0,0-.24,1.76A16.25,16.25,0,0,0,259.65,167.86Z" transform="translate(24 30)" style="fill:#65b9af"/><path d="M305,164.87A16.23,16.23,0,1,0,290,147.41,16.25,16.25,0,0,0,305,164.87Z" transform="translate(24 30)" style="fill:#d8c59d"/><circle cx="283.58" cy="105.71" r="22.63" transform="translate(180.26 410.27) rotate(-85.57)" style="fill:#e94168"/><circle cx="270.75" cy="64.85" r="7.65" transform="translate(209.17 359.77) rotate(-85.57)" style="fill:#868486"/><path d="M353.54,180.68A12.74,12.74,0,1,0,348,190.2,12.71,12.71,0,0,0,353.54,180.68Z" transform="translate(24 30)" style="fill:#8d538a"/><path d="M309,197.37a19.87,19.87,0,0,1,8,2.39,12.72,12.72,0,1,0-21.68,1.67A19.88,19.88,0,0,1,309,197.37Z" transform="translate(24 30)" style="fill:#045d68"/><path d="M218.29,199.86a8.2,8.2,0,1,0,7.54,8.81c0-.1,0-.19,0-.29A8.18,8.18,0,0,0,218.29,199.86Z" transform="translate(24 30)" style="fill:#8d538a"/><circle cx="366.21" cy="179.4" r="8.2" transform="translate(183.04 560.64) rotate(-85.57)" style="fill:#fcbd1a"/><circle cx="368.6" cy="119.14" r="8.2" transform="translate(245.31 507.42) rotate(-85.56)" style="fill:#fcbd1a"/><path d="M310.64,80.81a12.71,12.71,0,1,0-11.7-13.67A12.68,12.68,0,0,0,310.64,80.81Z" transform="translate(24 30)" style="fill:#8d538a"/><path d="M317,199.76a20,20,0,1,0,10.36,19.07A19.87,19.87,0,0,0,317,199.76Z" transform="translate(24 30)" style="fill:#8d538a"/><path d="M311.67,246.47l22.73-5.09a12.71,12.71,0,0,0-22.73,5.09Z" transform="translate(24 30)" style="fill:#65b9af"/><path d="M387.42,198.68a23.42,23.42,0,0,0-21.73,35.71l43.18-9.66c0-.28.09-.56.11-.85A23.45,23.45,0,0,0,387.42,198.68Z" transform="translate(24 30)" style="fill:#fcbd1a"/><path d="M297.45,249.66a49.48,49.48,0,0,0-83.7-4L242,262.06Z" transform="translate(24 30)" style="fill:#045d68"/></g><g id="6d39fbcc-c924-4fed-93be-4680a91ef332" data-name="Brand"><path d="M452.3,335.46c-6.94,1.78-10.5,8.9-10.5,19.77,0,19.4,13.94,18.24,13.94,32.14,0,4.83-1.43,7-3.7,7.59s-3.7-.71-3.7-5.55v-4.84l-6.74,1.85v4.17c0,10.87,3.63,16.05,10.63,14.07s10.63-9.16,10.63-19.94c0-19.25-13.94-18.12-13.94-32,0-4.84,1.3-7,3.57-7.61s3.57.91,3.57,5.73v2.8l6.75-1.78v-2.12C462.8,338.93,459.24,333.68,452.3,335.46Z" transform="translate(24 30)" style="fill:#3e3c3b"/><polygon points="439.93 444.15 446.35 442.33 446.35 392.78 455.23 439.83 462.56 437.76 462.56 369.76 456.2 371.39 456.2 412.19 448.88 373.27 439.93 375.57 439.93 444.15" style="fill:#3e3c3b"/><polygon points="361.95 466.16 369.08 464.15 369.08 393.75 361.95 395.58 361.95 466.16" style="fill:#3e3c3b"/><polygon points="380.42 390.84 373.29 392.67 373.29 462.96 392.16 457.63 392.16 447.66 380.42 450.93 380.42 390.84" style="fill:#3e3c3b"/><polygon points="413.16 441.81 401.42 445.08 401.42 385.45 394.29 387.28 394.29 457.03 413.16 451.7 413.16 441.81" style="fill:#3e3c3b"/><path d="M390.71,368.66v36c0,11.07,3.83,16.32,10.83,14.34s10.83-9.34,10.83-20.33V363c0-11-3.83-16.29-10.83-14.49S390.71,357.58,390.71,368.66Zm7.13-2.57c0-4.93,1.43-7.18,3.7-7.77s3.7.91,3.7,5.83v37.18c0,4.92-1.43,7.18-3.7,7.82s-3.7-.84-3.7-5.77Z" transform="translate(24 30)" style="fill:#3e3c3b"/><path d="M279.81,414.17c3.18-3.22,4.6-8.33,4.6-15.73v-2.57c0-11.1-3.18-15.73-10.57-13.84l-10.76,2.76v72.5l11.22-3.17c7.13-2,10.83-9,10.83-20.11v-5.86C285.12,420.55,283.63,415.51,279.81,414.17Zm-9.6-20.87,3.44-.89c2.53-.66,3.63,1.32,3.63,6.47v4c0,5.77-1.62,8.06-4.28,8.77l-2.79.75ZM278,435.68c0,5.36-1.3,7.47-3.7,8.14L270.21,445V422.74l3.18-.86c3.24-.88,4.6.82,4.6,7.51Z" transform="translate(24 30)" style="fill:#3e3c3b"/><path d="M298.67,374.85c-7,1.8-10.83,9.35-10.83,20.85v37.37c0,11.5,3.83,17,10.83,15s10.83-9.58,10.83-21V390C309.49,378.59,305.67,373,298.67,374.85Zm3.7,54.92c0,5.11-1.43,7.44-3.7,8.08s-3.69-.91-3.69-6V393.1c0-5.12,1.43-7.44,3.69-8s3.7,1,3.7,6.09Z" transform="translate(24 30)" style="fill:#3e3c3b"/><path d="M327.32,423c0,5.06-1.43,7.28-3.69,7.91s-3.7-.79-3.7-5.87v-54.8L312.8,372v54.23c0,11.39,3.63,16.88,10.63,14.9s10.63-9.47,10.63-20.77V366.58l-6.74,1.73Z" transform="translate(24 30)" style="fill:#3e3c3b"/><polygon points="411.18 376.92 414.14 376.17 414.14 311.53 423.35 309.41 423.35 305.3 402.05 310.17 402.05 314.32 411.18 312.21 411.18 376.92" style="fill:#67696a"/><polygon points="444.77 364.29 429.98 368.04 429.98 339.52 442.26 336.54 442.26 332.46 429.98 335.42 429.98 307.88 444.77 304.47 444.77 300.39 427.01 304.46 427.01 372.89 444.77 368.37 444.77 364.29" style="fill:#67696a"/><path d="M439.89,318.56l14-3.49,2.25,14.29,3-.75-10-64.8-4.31,1-9.85,70,2.7-.69Zm6.95-49.14,6.63,41.93-13.13,3.25Z" transform="translate(24 30)" style="fill:#67696a"/><polygon points="473.47 290.26 468.91 282.16 465.69 282.88 471.16 290.79 473.47 290.26" style="fill:#67696a"/><path d="M303,352.63l2.25,15.14,3-.75-10-68.65-4.31,1L284,373.18l2.7-.69,2.25-16.37Zm-7.08-48.36,6.63,44.41-13.13,3.25Z" transform="translate(24 30)" style="fill:#67696a"/><path d="M322.64,292.86v70.48l9.65-2.46c6.89-1.75,9.85-8.6,9.85-18.7v-6.1c0-7.9-1.87-13-6.76-13.37,4.57-2.6,5.92-7.62,5.92-15.23v-4c0-9.7-2.44-14.34-9.2-12.79Zm16.54,43.65v6.3c0,7.81-1.93,12.6-6.89,13.85l-6.69,1.69V327.49l5.6-1.35C336.54,324.84,339.18,327.41,339.18,336.51Zm-.84-31.93v4.51c0,8.91-2.44,11.7-7.72,13l-5,1.21V296.4l6.43-1.48C336.86,293.81,338.34,297.27,338.34,304.58Z" transform="translate(24 30)" style="fill:#67696a"/><path d="M356.62,355.29c6.95-1.77,10-10,10-20.08V299.74c0-10.11-3-16.84-10-15.25s-9.85,9.74-9.85,19.92v35.73C346.77,350.31,349.8,357,356.62,355.29Zm-6.89-51.88c0-7.58,1.93-13.61,6.89-14.75s7,3.94,7,11.48v36.11c0,7.54-2,13.6-7,14.87s-6.89-3.84-6.89-11.42Z" transform="translate(24 30)" style="fill:#67696a"/><polygon points="398.44 311 395.49 311.68 395.49 380.91 398.44 380.16 398.44 311" style="fill:#67696a"/><polygon points="304.17 399.85 290.02 403.43 290.02 335.82 287.05 336.5 287.05 408.5 304.17 404.14 304.17 399.85" style="fill:#67696a"/></g></svg>