<?xml version="1.0" encoding="UTF-8"?>
<svg xmlns="http://www.w3.org/2000/svg" id="32a7ba17-76aa-42ef-8900-f9e23f9f9ad7" data-name="Brand" viewBox="0 0 16 16">
    <path d="M299.78,265.38c-.22.06-.33.28-.33.62,0,.61.44.58.44,1,0,.15,0,.22-.12.24s-.12,0-.12-.18v-.15l-.21.06v.13c0,.34.11.51.34.44s.34-.29.34-.63c0-.61-.44-.57-.44-1,0-.15,0-.22.11-.24s.11,0,.11.18V266l.21-.06v-.07C300.11,265.49,300,265.33,299.78,265.38Z" transform="translate(-288.72 -255.1)" style="fill:#000000" />
    <polygon points="9.92 12.76 10.12 12.71 10.12 11.14 10.4 12.63 10.63 12.56 10.63 10.42 10.43 10.47 10.43 11.76 10.2 10.53 9.92 10.6 9.92 12.76" style="fill:#000000" />
    <polygon points="7.46 13.46 7.68 13.39 7.68 11.17 7.46 11.23 7.46 13.46" style="fill:#000000" />
    <polygon points="8.04 11.08 7.82 11.14 7.82 13.36 8.41 13.19 8.41 12.87 8.04 12.98 8.04 11.08" style="fill:#000000" />
    <polygon points="9.07 12.69 8.71 12.79 8.71 10.91 8.48 10.97 8.48 13.17 9.07 13 9.07 12.69" style="fill:#000000" />
    <path d="M297.84,266.43v1.13c0,.35.12.51.34.45s.34-.29.34-.64v-1.13c0-.35-.12-.51-.34-.46S297.84,266.08,297.84,266.43Zm.22-.08c0-.16,0-.23.12-.24s.12,0,.12.18v1.17c0,.16,0,.23-.12.25s-.12,0-.12-.18Z" transform="translate(-288.72 -255.1)" style="fill:#000000" />
    <path d="M294.34,267.87a.68.68,0,0,0,.15-.5v-.08c0-.35-.1-.5-.33-.44l-.34.09v2.29l.35-.1c.22-.06.34-.28.34-.63v-.18C294.51,268.07,294.46,267.91,294.34,267.87Zm-.3-.66.11,0c.08,0,.11,0,.11.2v.13c0,.18-.05.25-.13.28l-.09,0Zm.25,1.34c0,.17,0,.24-.12.26l-.13,0v-.7l.1,0c.1,0,.15,0,.15.24Z" transform="translate(-288.72 -255.1)" style="fill:#000000" />
    <path d="M294.94,266.63c-.22.06-.34.29-.34.66v1.18c0,.36.12.54.34.47s.34-.3.34-.66V267.1C295.28,266.74,295.16,266.57,294.94,266.63Zm.12,1.73c0,.16,0,.23-.12.25s-.12,0-.12-.19V267.2c0-.16,0-.23.12-.25s.12,0,.12.19Z" transform="translate(-288.72 -255.1)" style="fill:#000000" />
    <path d="M295.84,268.14c0,.16,0,.23-.12.25s-.12,0-.12-.18v-1.73l-.22.06v1.71c0,.36.11.53.34.47s.34-.3.34-.65v-1.7l-.21.05Z" transform="translate(-288.72 -255.1)" style="fill:#000000" />
    <polygon points="9.01 10.64 9.11 10.62 9.11 8.58 9.4 8.51 9.4 8.38 8.72 8.54 8.72 8.67 9.01 8.6 9.01 10.64" style="fill:#000000" />
    <polygon points="10.07 10.24 9.61 10.36 9.61 9.46 9.99 9.37 9.99 9.24 9.61 9.33 9.61 8.47 10.07 8.36 10.07 8.23 9.51 8.36 9.51 10.52 10.07 10.37 10.07 10.24" style="fill:#000000" />
    <path d="M299.39,264.85l.44-.11.07.45.09,0-.32-2-.14,0-.31,2.21.09,0Zm.22-1.55.21,1.32-.41.1Z" transform="translate(-288.72 -255.1)" style="fill:#000000" />
    <polygon points="10.98 7.91 10.83 7.66 10.73 7.68 10.9 7.93 10.98 7.91" style="fill:#000000" />
    <path d="M295.07,265.93l.07.48.09,0-.32-2.16-.14,0-.31,2.33.09,0,.07-.52Zm-.22-1.52.21,1.4-.41.1Z" transform="translate(-288.72 -255.1)" style="fill:#000000" />
    <path d="M295.69,264v2.22l.3-.08c.22-.06.31-.27.31-.59v-.19c0-.25-.06-.41-.21-.42.14-.08.19-.24.19-.48v-.13c0-.31-.08-.45-.29-.4Zm.52,1.38v.2c0,.25-.06.4-.22.44l-.21.05v-1l.18,0C296.13,265,296.21,265.13,296.21,265.42Zm0-1v.14c0,.28-.08.37-.24.41l-.16,0v-.85l.2,0C296.14,264.07,296.19,264.18,296.19,264.41Z" transform="translate(-288.72 -255.1)" style="fill:#000000" />
    <path d="M296.76,266c.22-.06.31-.31.31-.63v-1.12c0-.32-.1-.53-.31-.48s-.31.31-.31.63v1.13C296.45,265.85,296.55,266.06,296.76,266Zm-.22-1.64c0-.24.06-.43.22-.46s.22.12.22.36v1.14c0,.24-.06.43-.22.47s-.22-.12-.22-.36Z" transform="translate(-288.72 -255.1)" style="fill:#000000" />
    <polygon points="8.61 8.56 8.52 8.59 8.52 10.77 8.61 10.74 8.61 8.56" style="fill:#000000" />
    <polygon points="5.64 11.37 5.19 11.48 5.19 9.35 5.1 9.37 5.1 11.64 5.64 11.5 5.64 11.37" style="fill:#000000" />
    <circle cx="6.5" cy="0.48" r="0.48" style="fill:#000000" />
    <circle cx="9.88" cy="3.75" r="0.59" style="fill:#000000" />
    <circle cx="7.97" cy="2.57" r="0.59" style="fill:#000000" />
    <circle cx="3.13" cy="2.34" r="0.8" style="fill:#000000" />
    <circle cx="2.1" cy="3.75" r="0.57" style="fill:#000000" />
    <circle cx="290.83" cy="260.53" r="0.4" transform="translate(-280.12 275.25) rotate(-85.57)" style="fill:#000000" />
    <path d="M292.21,261.18a.26.26,0,0,1,.43.2h.11a1,1,0,0,0,1-1.29h-.07a.51.51,0,0,1-.47-.55v-.06a1,1,0,0,0-1,1.69Z" transform="translate(-288.72 -255.1)" style="fill:#000000" />
    <path d="M293.71,260.1h.07a.51.51,0,1,0-.53-.61v.06A.51.51,0,0,0,293.71,260.1Z" transform="translate(-288.72 -255.1)" style="fill:#000000" />
    <path d="M295.14,260a.51.51,0,1,0-.47-.55A.51.51,0,0,0,295.14,260Z" transform="translate(-288.72 -255.1)" style="fill:#000000" />
    <circle cx="294.46" cy="258.14" r="0.71" transform="translate(-274.39 276.66) rotate(-85.57)" style="fill:#000000" />
    <circle cx="294.06" cy="256.85" r="0.24" transform="translate(-273.47 275.07) rotate(-85.57)" style="fill:#000000" />
    <path d="M296.67,260.5a.4.4,0,1,0-.17.3A.4.4,0,0,0,296.67,260.5Z" transform="translate(-288.72 -255.1)" style="fill:#000000" />
    <path d="M295.26,261a.63.63,0,0,1,.25.08.4.4,0,1,0-.68.05A.63.63,0,0,1,295.26,261Z" transform="translate(-288.72 -255.1)" style="fill:#000000" />
    <path d="M292.4,261.11a.26.26,0,1,0,.24.28h0A.26.26,0,0,0,292.4,261.11Z" transform="translate(-288.72 -255.1)" style="fill:#000000" />
    <circle cx="297.07" cy="260.46" r="0.26" transform="translate(-274.3 281.4) rotate(-85.57)" style="fill:#000000" />
    <circle cx="297.14" cy="258.56" r="0.26" transform="translate(-272.34 279.72) rotate(-85.56)" style="fill:#000000" />
    <path d="M295.31,257.36h.13a.4.4,0,1,0-.13,0Z" transform="translate(-288.72 -255.1)" style="fill:#000000" />
    <path d="M295.52,261.11a.63.63,0,1,0,.33.6A.63.63,0,0,0,295.52,261.11Z" transform="translate(-288.72 -255.1)" style="fill:#000000" />
    <path d="M295.35,262.58l.72-.16a.4.4,0,0,0-.72.16Z" transform="translate(-288.72 -255.1)" style="fill:#000000" />
    <path d="M297.74,261.07a.74.74,0,0,0-.69,1.13l1.36-.3v0A.74.74,0,0,0,297.74,261.07Z" transform="translate(-288.72 -255.1)" style="fill:#000000" />
    <path d="M294.9,262.68a1.56,1.56,0,0,0-2.64-.13l.89.52Z" transform="translate(-288.72 -255.1)" style="fill:#000000" />
    <path d="M296.67,260.5a.4.4,0,0,1-.17.3v1.52l.56-.12a.74.74,0,1,1,1.36-.33v0l2.22-.5v7l-7.49,2.33v-7.67h0l-.89-.52-3.55-2.06h0v6.72l4.43,3.88,7.77-2.42v-7.35l-4.42-2.5v1.31A.4.4,0,0,1,296.67,260.5Zm.42-.3a.26.26,0,1,1-.28.24A.26.26,0,0,1,297.09,260.21Z" transform="translate(-288.72 -255.1)" style="fill:#000000" />
    <polygon points="0 5.39 0 5.39 0 5.39 0 5.39" style="fill:none" />
</svg>